<svg id="Layer_1" data-name="Layer 1" xmlns="http://www.w3.org/2000/svg" viewBox="0 0 630 400"><defs><style>.cls-1{fill:#fbbd3f;}.cls-2{fill:#d2e9f6;}.cls-3{fill:#303030;}.cls-4{fill:#214371;}.cls-5{fill:#fdd3b9;}.cls-6{fill:#fff;}.cls-7{fill:#ecbeb2;}.cls-8{fill:#294066;}.cls-9{fill:#2f487c;}.cls-10{fill:#e6482d;}.cls-11{fill:#fbbfa1;}.cls-12{fill:#325d86;}.cls-13{fill:#e9c4b0;}.cls-14{fill:#f2efe8;}.cls-15{fill:#242938;}</style></defs><title>Untitled-2</title><path class="cls-1" d="M360,370H224.4V263.7H360Zm-131.6-4.1H356V267.8H228.4Z"/><path class="cls-2" d="M590.5,385c0,3.4-60.9,6.1-136,6.1s-136-2.7-136-6.1,60.9-6.2,136-6.2S590.5,381.6,590.5,385Z"/><path class="cls-1" d="M97.7,337.6H39.5V263.4H97.7Zm-54.2-4H93.6V267.5H43.5Z"/><path class="cls-1" d="M190.2,337.6H132.1V263.4h58.1Zm-54.1-4h50.1V267.5H136.1Z"/><path class="cls-1" d="M320.1,248.3H263.2V174.1h56.9Zm-52.8-4.1h48.8V178.1H267.3Z"/><path class="cls-1" d="M465.8,148.5H361.2V8.9H465.8Zm-100.6-4.1h96.5V12.9H365.2Z"/><path class="cls-3" d="M570.5,370.6v14.5H550.8s.6-2.6,1.4-2.9,6.2-6,6.7-6.6,2.9-6.4,2.9-6.4Z"/><path class="cls-3" d="M546.9,370.6v14.5h-4.7l-1.2-2.7-1.4,2.7H521.2s.7-2.6,1.5-2.9,12.1-6,12.6-6.6,2.9-6.4,2.9-6.4Z"/><path class="cls-4" d="M543.8,232.9s.7,45.2.2,53.5c-.1,2.6,2.5,12.7,2.1,25.1-.1,2-.1,4-.2,6-.1,4.3,1.2,8.8,1.1,13.2-.8,22.5,0,45.1,0,45.1s-11.2.2-11.2,0S519.3,290.5,518,270.1s-.6-47.7-2.4-50.6,4.9-18.8,4.9-18.8l15.8,3.9Z"/><path class="cls-4" d="M467.3,172.2l3.7,8.9s43.4-9.7,45-11,10.7-12.2,18.1-21.1l8.6-10.5s-1.9-14.7-7.3-18.1a21.1,21.1,0,0,0-10.1-3.4l-21.4,38.9Z"/><path class="cls-5" d="M471.9,171.8l-5.8.5-4.1-1.2a2.7,2.7,0,0,0-2.9,1.2l1.8,1.5,4.6,4.7s2.1,1.8,3.4,1.3l5.3-1.5Z"/><path class="cls-6" d="M476.1,168.3l-8.8,3.9,3.7,8.9,8.4-1.9Z"/><path class="cls-7" d="M553.2,97a22.8,22.8,0,0,0,1.9,9.8c.9,2.4,9.2,5.2,9.2,5.2s-25.2,28-34.9,27.8,4.2-26.3,4.2-26.3,4.1-2.5,5-5.2,1.4-8.7,1.4-8.7l11.4-14.5Z"/><path class="cls-5" d="M534.6,69.3c-1.7,1-4.5,3.3-4.6,4.9a80.1,80.1,0,0,0-.5,9.3c.3,2.9.4,10.2.8,13.5s.9,7.8,1.7,8.4,8.7.8,10.4,0,9.7-9,9.4-16.1c0,0,3.1,1.5,5.6-4.9.6-1.6-4.9-8-5.6-10-1.7-4.7-11.2-3.4-13.8-3.7S534.6,69.3,534.6,69.3Z"/><path class="cls-3" d="M529.9,74.2s1-2.2,2.9-1.3,5.9,1.5,8.9,1.3a21,21,0,0,0,6.1-1.5s0,4.3.8,5.5,2.7,2.6,2.8,4a23.8,23.8,0,0,1,0,2.9s1.9-2.5,3.4-2,1.6,3,0,4.2a22,22,0,0,1-3,2,23.3,23.3,0,0,0,.3,3.6l1.1,4.1s3.3-9,6-12.6,4-11.2-1.3-14.1a8.7,8.7,0,0,0-7.4-8.4c-7.5-1.3-23.9,3-22.3,6.5A22.1,22.1,0,0,1,529.9,74.2Z"/><path class="cls-8" d="M568.3,204.6s0,28.8.1,56.5c0,6.8,2.4,24,2.1,35.7,0,4.3.1,11.8,0,16.4-.7,33.9-.2,62.6-.2,62.6l-13.4,1.5s-4.9-31-9.6-62c-2-13-7.4-36.3-8.7-41.6-4.5-17.8-8.7-72.8-8.7-72.8Z"/><path class="cls-9" d="M559.9,108.7l15.7,8.5s4,16.1,3.8,22.7-9.2,71.5-9.2,71.5-22.6,2.7-34,0-19.2-5.3-19.2-5.3,3.9-63.4,4.8-69.9,3.2-19.7,3.2-19.7l8.8-4.6,5,3.8Z"/><polygon class="cls-10" points="535.9 117 537.8 123.3 541.1 123.6 546 116 538.8 115.7 535.9 117"/><polygon class="cls-6" points="557.8 105.4 538.8 115.7 546.5 122.2 559.9 108.7 557.8 105.4"/><polygon class="cls-6" points="538.8 115.7 532.6 120.7 533.9 111.9 535.9 109.4 538.8 115.7"/><polygon class="cls-4" points="562.4 162.9 554.9 166.7 547.3 161.4 547.3 143.8 562.4 145.3 562.4 162.9"/><path class="cls-3" d="M413.1,132c-10.9,2.3-24.5-4.7-33.5-12l3.7-12.5,15.6-21.4s9.6-.2,11.4,10.3-1.5,18.8,2.4,33.7A16.2,16.2,0,0,1,413.1,132Z"/><path class="cls-11" d="M427.1,234l.8,1.1c3,0,6.7-4.3,7-4.4a13.4,13.4,0,0,1,3.6.6c.7.4,1.3.5,1.6-.2s-1.1-1.7-2-2.4a16.5,16.5,0,0,0-4.2-2.1c-1.1-.3-1.9-1.8-2.6-2.3s-3.6-3.6-3.9-5.2a13.2,13.2,0,0,0-3.8,1.5c-1.9,1.1-1.7,1.6-1.7,1.6C423.9,225.2,426.4,233,427.1,234Z"/><path class="cls-4" d="M407.8,135.6c-4.2-2.6-10.9-.8-12.2,5-1.8,8.1,5.2,37,7.9,50.6.2,1.3-1.1-4.9-.2-2,3.1,10.4,11.4,28.7,18.2,38.4a16.4,16.4,0,0,1,7.4-5.9s-10.6-30.9-12.2-34.8c0,0-2-15.9-2.6-31.8C413.6,143.6,410.8,137.5,407.8,135.6Z"/><rect class="cls-12" x="386.2" y="199.4" width="56.8" height="33.95"/><rect class="cls-6" x="383.7" y="196.4" width="56.8" height="33.95"/><rect class="cls-10" x="381.7" y="199.4" width="56.8" height="33.95"/><path class="cls-13" d="M436.7,234.5c0-.9-.7-5.7-2.8-4.1-.5-1.1-2.3-2.5-3.1-.9-1.5-.8-1.5-.1-2.6.5s-1.8,0-2.1,1.6a3.3,3.3,0,0,0,1.2,3.3c1,.6,3.6.6,4.8.6S436,235.7,436.7,234.5Z"/><path class="cls-7" d="M400.1,132.1c-1.7,0-4.5-2.3-2-7.7L387.7,121s-2.3,6.9-5.3,10.9,9.8,29,17.2,30.2,10.1-8.1,10.1-8.1l-5.3-18.4Z"/><path class="cls-7" d="M402.1,121.9c-2.5,2-4.9,9.2-4.8,13.1l-15.9,3.3s3.5-10.3,5.1-18,0-11,0-11Z"/><path class="cls-5" d="M407.5,93.4c1.8,2.2,2.4,5.6,2.6,7.1s-.6,3.1.4,4.5,4.3,3.7,4.6,4.6-2,2.5-2.2,3-1.1,5.3-1.5,7.7-5.7,2.5-9.3,1.6-8.7-3.8-10.7-5-4.9-7.6-4.9-7.6l-2.7-12.7a10.4,10.4,0,0,1,10.1-7C401.8,89.5,405.5,90.7,407.5,93.4Z"/><path class="cls-3" d="M394.4,110.5c-1.8.4-3.1,10.4-.3,17-8.3,2.6-12.3,0-18.5-3.1-2.1-3-5-25.9,4.7-34,16.1-13.6,25.2.8,25.2.8S402.2,107.2,394.4,110.5Z"/><path class="cls-9" d="M383.3,131.3a30.6,30.6,0,0,1,9.7,7.1c4.6,5.1,10.9,11.1,14.6,15.6,0,0-2.3-6.8-3.3-10.4s-2.7-10.4-4.2-11.5l5,1.6s4.4,12,6.8,16,5.9,9.5,5.7,14.8-3.5,13-3,17.5-.1,28.1-.1,28.1a69.6,69.6,0,0,1-22,3c-11.4-.5-10.2-1.8-13.9.5,0,0,5.3-19.2,6.6-30.4,1-8.3-3.6-22.3-5.6-31.5s-10.2-8.9-7.1-13.6S383.3,131.3,383.3,131.3Z"/><path class="cls-5" d="M396.7,367.3c-.3-2.1.5-10.9,3.6-22.8l.6-2.5-12,.4c-.5,12,.1,24.1-2.7,30,0,0,3.5,4.6,7.6,6.6,1.7.8,6.5,4.3,8.8,3.8a5.9,5.9,0,0,0,4.2-3.3S397.5,372.2,396.7,367.3Z"/><path class="cls-3" d="M386.2,372.4s1.6-.8,3.4,1,5.7,5.6,8.6,6.9a8.1,8.1,0,0,0,8.6-.8,32.9,32.9,0,0,1,5.6,3.1c3.9,2.6-3.7,3.9-13.7,2.5-2.2-.3-8.2-3.6-9-3.7s-1.6,2.5-2.2,2.5-1.4.3-1.4.3l-.5-6.6Z"/><path class="cls-4" d="M414.6,216.1c2.3,19.1.2,62.9-.1,66.8s.2,9.4-1.6,13.8-11.6,48.5-12.5,58.7c0,0-10.5-.5-12.9-1.5,0,0,1.8-28.5,1.8-34.7s4.3-25.1,5.5-27.7-2.7-23.9-3-28.6-5.5-44.3-5.5-44.3Z"/><path class="cls-5" d="M362.9,361.8c.4-2,3.6-10.1,9.5-18.9-3.5-.9-7-.6-10.5-1.5-3.4,8.8-6.4,16.9-10.1,20.3,0,0,1.5,6,4.5,9.8,1.2,1.5,4.2,7.1,6.4,7.6a4.7,4.7,0,0,0,4.9-1.1S361.9,366.7,362.9,361.8Z"/><path class="cls-3" d="M351.8,361.7s1.7.1,2.7,2.6,3.2,7.9,5.3,10.5c3.7,4.5,7.8,3.2,7.8,3.2a32.4,32.4,0,0,1,3.9,5.5c2.6,4.2-4.6,2-13-4-1.8-1.3-6-7.2-6.7-7.6s-2.3,1.7-2.8,1.4-1.4-.5-1.4-.5l1.9-6.4Z"/><path class="cls-8" d="M370.8,216.4c-.7,3.9-4,11.7,0,31.8s5.9,38.3,5.9,38.3-7.2,16.1-11.2,27.2-8.5,35.9-8.5,35.9l9.8,6s19.1-40.9,22.4-47,7.8-15.7,8.1-22.1c.4-11.1,2.9-35,4.6-44.7,1.1-6,3.7-24.3,3.7-24.3Z"/><path class="cls-14" d="M416.9,217.7c-.4-5.2-1.2-10.9-2.2-13.4-2.2-5.3-4.7-11.7-4.7-11.7l-31.1,13A26.6,26.6,0,0,0,370,217,132,132,0,0,0,416.9,217.7Z"/><path class="cls-9" d="M417.6,164.5c.2-5.3-3.4-10.8-5.7-14.8s-6.8-16-6.8-16l-5-1.6c1.5,1.1,2.9,7.4,4.2,11.5s3.3,10.4,3.3,10.4c-1.3-1.6-.9,50.3-.1,57.8,2.2,9.6,10.1,6.8,10.1,6.8s-2.5-32-3-36.6S417.5,169.9,417.6,164.5Z"/><path class="cls-9" d="M415.8,174q-4.7-1-9-2.4c-.1,15.3.2,35.7.7,40.2,2.2,9.6,10.1,6.8,10.1,6.8s-2.5-32-3-36.6A25.4,25.4,0,0,1,415.8,174Z"/><path class="cls-4" d="M410.7,185.5c-.2-13.3-3.1-31.5-3.1-31.5-1.3-1.6-.9,50.3-.1,57.8,1.3,5.7,4.6,7.1,7.1,7.2C413.2,204.5,411,200,410.7,185.5Z"/><path class="cls-9" d="M373.5,142.6c1.1-3.3,9.8-11.3,9.8-11.3S402,143.2,407.6,154c0,0,2.1,36,1.1,46.9s-7.9,22.9-19.2,21.7a99,99,0,0,1-19.6-4s10.9-24.6,9.7-30.7C377.6,177.6,371.7,147.9,373.5,142.6Z"/><path class="cls-9" d="M373.4,149.5c.8,10.9,4.7,30.4,6.2,38.4,1.2,6.1-9.7,30.7-9.7,30.7a99,99,0,0,0,19.6,4c11.3,1.2,18.2-10.8,19.2-21.7.5-5.1.3-15.8-.1-25.6C395.6,168.3,382.7,160.5,373.4,149.5Z"/><path class="cls-15" d="M396,105.8v-.2a13.5,13.5,0,0,0,8.7-5.8c2-3.2,1.9-7.4-.2-10h.1a9,9,0,0,1,.3,10.2A14.5,14.5,0,0,1,396,105.8Z"/><path class="cls-13" d="M444,176.1c1.7.4,5-.6,6.7-1.4s2.6-.5,3.4-1.4a20.1,20.1,0,0,1,3.8-3c1.1-.5,2.6-1.3,3.2-.7s.2,1.1-.5,1.6.2,3.4,2.2,2.9,4.2-2.2,5.3-2.6,1.3,1.4,1.3,1.4,1,.9.9,1.7a9.5,9.5,0,0,1-.5,2.3,24.6,24.6,0,0,0-.9,2.9c-.1.8-2.6,2.6-3.6,3s-6,.1-7.3.3-9.8-.9-13.5-.5c0,0-.6,0-.8-2.2A20.1,20.1,0,0,1,444,176.1Z"/><path class="cls-4" d="M381.3,133c-5-1.2-10.4,2.7-11,11.4s20.7,24.5,31.2,34.5c1,.9,1.7,1.5,4.8,2a370.6,370.6,0,0,0,40.1,4.6s.3-4.4.8-9.7c0,0-29.1-3.9-37.4-9.1,0,0-5.9-3.8-11-13.4S388.3,134.7,381.3,133Z"/><path class="cls-5" d="M576.7,216a27.9,27.9,0,0,1-.4,4.1,34.5,34.5,0,0,1-5.4,11,15.6,15.6,0,0,0-2.3,5.3l2.4.2,1.5-1.7c.7-.6,1.9-1.2,1.8-.7s-.3,5.2-1.2,7.1-3.6,3-3.6,3l4,.4,3.6-1,1.4-.6,1.5-2.8,1.7-1s1.3-5.1,2-8.7,0-5-.1-10.7a26.6,26.6,0,0,1,.4-3.8Z"/><path class="cls-4" d="M575.6,223.6l10,1s3.5-42.6,3.5-44.5.5-44.5-4.7-54.4c-4.1-8-10.5-9.8-15.9-7.9s-3.2,14.3-3.2,14.3l8.3,48.3Z"/><path class="cls-6" d="M580.5,216.6a8.2,8.2,0,0,1-5.3-.9l.4,7.9,10,1s.4-3.8.9-9Z"/><path class="cls-10" d="M537.8,123.3s-1,14-2,30.5-2.4,37.3-2.8,40c-.7,5.2,4.8,10.8,4.8,10.8s4.4-6.8,4.7-8.9-2-31-2.5-51.9a137.1,137.1,0,0,1,1.1-20.2Z"/><path class="cls-4" d="M383.3,131.3a56.1,56.1,0,0,1,12.5,7c5.1,4,11.8,15.7,11.8,15.7s-4.4-4.4-6.4-5.9-4.9-2.7-4.9-2.7l1.5-2.1-4.9-.2a72.6,72.6,0,0,0-4.7-6.2,13.5,13.5,0,0,0-7.4-4.7Z"/><path class="cls-4" d="M399.3,131.9l3.2,8.3,5.1,13.8s-.6-5.4-.7-7.4-.2-4-.2-4h-2a4.3,4.3,0,0,1,.8-2.3,37.7,37.7,0,0,0-2.1-4.9,35,35,0,0,0-2.5-3.5Z"/><path class="cls-5" d="M455.3,182.7c1.3-2.3,1.6-3.6,3-3.7s1.2.7,1.2.7,1.5-.7,2.1-.2l.6.5a4.3,4.3,0,0,1,1.5.1,1.4,1.4,0,0,1,1.1.7s1.8-1,1.8,0a3.2,3.2,0,0,1-2.2,2.5Z"/><path class="cls-5" d="M460.6,171.2c-1.5.9-3.6,2.4-3.6,3.4s.8,1.2,1.8.6a34.9,34.9,0,0,1,4-1.8l1.2-.5Z"/></svg>